<svg width="1500" height="365" viewBox="0 0 1500 365" fill="none" xmlns="http://www.w3.org/2000/svg">
<path d="M1011.87 50.2284C996.124 50.2284 983.989 58.4219 975.462 75.1366C966.934 91.5236 962.67 115.121 962.67 145.273C962.67 175.425 966.934 199.022 975.462 215.409C983.989 231.796 996.124 239.99 1011.87 239.99C1027.61 239.99 1039.75 231.796 1048.27 215.409C1056.8 199.022 1061.06 175.425 1061.06 145.273C1061.06 115.121 1056.8 91.5236 1048.27 75.1366C1039.75 58.7496 1027.61 50.2284 1011.87 50.2284ZM1011.87 4.01709C1048.27 4.01709 1076.48 16.4712 1097.14 41.3794C1117.48 66.2876 1127.65 100.7 1127.65 145.273C1127.65 189.845 1117.48 224.586 1097.14 249.166C1076.81 273.747 1048.27 286.201 1011.87 286.201C975.462 286.201 946.927 273.747 926.592 249.494C906.257 224.914 896.09 190.173 896.09 145.273C896.09 100.373 906.257 66.2876 926.592 41.3794C946.927 16.4712 975.462 4.01709 1011.87 4.01709Z" fill="#7353F6"/>
<path d="M0 4.87908H151.056V51.1327H63.6231V120.025H147.934V166.669H63.6231V282.206H0V4.87908Z" fill="white"/>
<path d="M255.443 59.5247L222.266 172.329H284.913L255.443 59.5247ZM219.729 4.87908H293.305L379.372 282.206H313.407L297.403 220.339H208.214L191.43 282.206H129.563L219.729 4.87908Z" fill="white"/>
<path d="M558.343 13.2711L555.22 65.1844C546.763 59.9801 538.371 56.2069 530.044 53.865C521.717 51.523 512.544 50.3521 502.526 50.3521C479.367 50.3521 461.477 58.4188 448.856 74.5523C436.366 90.6857 430.121 113.52 430.121 143.054C430.121 173.24 436.561 196.529 449.442 212.923C462.453 229.317 480.928 237.513 504.868 237.513C513.585 237.513 522.237 236.212 530.825 233.61C539.412 231.008 548.194 226.975 557.172 221.51L559.904 274.985C550.016 278.888 539.672 281.815 528.873 283.767C518.074 285.719 506.755 286.694 494.915 286.694C454.581 286.694 422.509 273.749 398.699 247.857C374.889 221.965 362.984 187.031 362.984 143.054C362.984 99.7283 374.759 65.0543 398.309 39.0326C421.989 13.0109 453.475 0 492.768 0C503.697 0 514.561 1.10592 525.36 3.31777C536.289 5.52962 547.283 8.84739 558.343 13.2711Z" fill="white"/>
<path d="M570.474 4.87908H755.098V54.4505H694.793V282.206H630.779V54.4505H570.474V4.87908Z" fill="white"/>
<path d="M1488.49 77.1612L1487.51 122.244C1479.7 118.08 1471.96 115.023 1464.29 113.071C1456.74 110.989 1449.19 109.949 1441.65 109.949C1432.41 109.949 1425.45 111.575 1420.76 114.828C1416.08 118.08 1413.74 122.959 1413.74 129.465C1413.74 137.401 1423.56 145.273 1443.21 153.08C1467.8 162.838 1483.41 172.141 1490.05 180.988C1496.68 189.705 1500 202 1500 217.874C1500 239.081 1492.65 255.54 1477.95 267.25C1463.37 278.83 1442.62 284.619 1415.69 284.619C1407.36 284.619 1398.45 283.774 1388.95 282.082C1379.45 280.521 1369.57 278.114 1359.29 274.861L1359.68 225.875C1368.66 231.34 1377.89 235.568 1387.39 238.561C1396.89 241.553 1406.19 243.05 1415.3 243.05C1424.8 243.05 1432.21 241.228 1437.55 237.585C1442.88 233.812 1445.55 228.673 1445.55 222.167C1445.55 214.101 1436.12 206.424 1417.25 199.138C1413.48 197.707 1410.55 196.601 1408.47 195.82C1389.34 188.144 1376.01 179.947 1368.46 171.23C1361.04 162.382 1357.34 150.998 1357.34 137.076C1357.34 115.608 1364.1 98.8893 1377.63 86.9193C1391.29 74.8192 1410.23 68.7692 1434.43 68.7692C1443.27 68.7692 1452.25 69.4848 1461.36 70.916C1470.47 72.217 1479.51 74.2988 1488.49 77.1612Z" fill="#7353F6"/>
<path d="M1210.36 249.434V364.775H1149.67V124.335C1149.67 122.383 1149.34 113.275 1148.69 97.0117C1148.3 86.3428 1147.98 77.5604 1147.71 70.6647H1206.26C1206.65 74.0475 1206.98 78.0809 1207.24 82.7648C1207.5 87.4487 1207.76 94.0842 1208.02 102.671C1214.66 90.3111 1222.53 81.2035 1231.63 75.3486C1240.87 69.3636 1251.67 66.3711 1264.03 66.3711C1287.32 66.3711 1305.21 75.6088 1317.7 94.0842C1330.32 112.56 1336.63 139.297 1336.63 174.296C1336.63 209.556 1330.39 236.358 1317.9 254.703C1305.54 273.049 1287.32 282.221 1263.25 282.221C1251.54 282.221 1241.52 279.619 1233.2 274.415C1224.87 269.211 1217.26 260.884 1210.36 249.434ZM1210.36 183.079C1210.36 199.863 1213.09 212.873 1218.56 222.111C1224.02 231.219 1231.7 235.773 1241.59 235.773C1251.74 235.773 1259.48 230.568 1264.81 220.16C1270.15 209.751 1272.81 194.463 1272.81 174.296C1272.81 153.739 1270.15 138.191 1264.81 127.652C1259.61 117.113 1251.87 111.844 1241.59 111.844C1231.7 111.844 1224.02 116.463 1218.56 125.701C1213.09 134.808 1210.36 147.754 1210.36 164.538V183.079Z" fill="#7353F6"/>
<path d="M776.113 124.221H861.569V166.479H776.113V124.221Z" fill="white"/>
</svg>
